<svg viewBox="0 0 800 400" xmlns="http://www.w3.org/2000/svg" style="background:#10182a">
  <defs>
    <linearGradient id="sky" x1="0" y1="0" x2="0" y2="1">
      <stop offset="0%" stop-color="#16213e"/>
      <stop offset="100%" stop-color="#10182a"/>
    </linearGradient>
    <filter id="glow" x="-50%" y="-50%" width="200%" height="200%">
      <feGaussianBlur stdDeviation="4" result="coloredBlur"/>
      <feMerge>
        <feMergeNode in="coloredBlur"/>
        <feMergeNode in="SourceGraphic"/>
      </feMerge>
    </filter>
  </defs>
  <rect width="800" height="400" fill="url(#sky)"/>
  <!-- 산맥 -->
  <path d="M0 300 Q 100 250 200 300 T 400 320 T 600 280 T 800 320 V400 H0Z" fill="#1a233a"/>
  <path d="M0 340 Q 120 300 250 340 T 500 360 T 800 340 V400 H0Z" fill="#222b44"/>
  <!-- 도시 건물 -->
  <g id="buildings">
    <rect x="80" y="260" width="40" height="80" fill="#232b3e"/>
    <rect x="130" y="240" width="30" height="100" fill="#2a3450"/>
    <rect x="170" y="270" width="50" height="70" fill="#232b3e"/>
    <rect x="230" y="250" width="40" height="90" fill="#2a3450"/>
    <rect x="280" y="280" width="30" height="60" fill="#232b3e"/>
    <rect x="320" y="260" width="60" height="80" fill="#2a3450"/>
    <rect x="390" y="250" width="40" height="90" fill="#232b3e"/>
    <rect x="440" y="270" width="30" height="70" fill="#2a3450"/>
    <rect x="480" y="260" width="50" height="80" fill="#232b3e"/>
    <rect x="540" y="240" width="40" height="100" fill="#2a3450"/>
    <rect x="590" y="270" width="30" height="70" fill="#232b3e"/>
    <rect x="630" y="260" width="60" height="80" fill="#2a3450"/>
    <rect x="700" y="250" width="40" height="90" fill="#232b3e"/>
  </g>
  <!-- 창문 (불꺼짐: #222, 불켜짐: #FFD600) -->
  <g id="windows">
    <rect class="window" x="90" y="280" width="8" height="12" fill="#222"/>
    <rect class="window" x="100" y="300" width="8" height="12" fill="#222"/>
    <rect class="window" x="140" y="260" width="6" height="10" fill="#222"/>
    <rect class="window" x="150" y="280" width="6" height="10" fill="#222"/>
    <rect class="window" x="180" y="290" width="8" height="12" fill="#222"/>
    <rect class="window" x="200" y="310" width="8" height="12" fill="#222"/>
    <rect class="window" x="240" y="270" width="8" height="12" fill="#222"/>
    <rect class="window" x="250" y="290" width="8" height="12" fill="#222"/>
    <rect class="window" x="330" y="280" width="10" height="14" fill="#222"/>
    <rect class="window" x="350" y="300" width="10" height="14" fill="#222"/>
    <rect class="window" x="400" y="270" width="8" height="12" fill="#222"/>
    <rect class="window" x="410" y="290" width="8" height="12" fill="#222"/>
    <rect class="window" x="450" y="290" width="6" height="10" fill="#222"/>
    <rect class="window" x="490" y="280" width="8" height="12" fill="#222"/>
    <rect class="window" x="510" y="300" width="8" height="12" fill="#222"/>
    <rect class="window" x="550" y="260" width="8" height="12" fill="#222"/>
    <rect class="window" x="560" y="280" width="8" height="12" fill="#222"/>
    <rect class="window" x="600" y="280" width="10" height="14" fill="#222"/>
    <rect class="window" x="620" y="300" width="10" height="14" fill="#222"/>
    <rect class="window" x="710" y="270" width="8" height="12" fill="#222"/>
    <rect class="window" x="720" y="290" width="8" height="12" fill="#222"/>
  </g>
</svg> 